<svg width="28" height="28" viewBox="0 0 28 28" fill="none" xmlns="http://www.w3.org/2000/svg">
<path d="M27.4062 14C27.4062 21.4922 21.3639 27.5625 13.9062 27.5625C12.5127 27.5625 11.1736 27.3492 9.91069 26.9555C10.4605 26.0531 11.2825 24.5766 11.5873 23.4008C11.7506 22.7664 12.4256 20.1742 12.4256 20.1742C12.8665 21.0164 14.1512 21.7328 15.5175 21.7328C19.5893 21.7328 22.5234 17.9703 22.5234 13.2945C22.5234 8.81563 18.8817 5.46328 14.2002 5.46328C8.3756 5.46328 5.27823 9.38984 5.27823 13.6719C5.27823 15.6625 6.33427 18.1398 8.01633 18.9273C8.27218 19.0477 8.40827 18.993 8.46815 18.7469C8.51169 18.5609 8.74032 17.6367 8.84375 17.2102C8.87641 17.0734 8.86008 16.9531 8.75121 16.8219C8.20141 16.1383 7.75504 14.8914 7.75504 13.7266C7.75504 10.7352 10.0087 7.84219 13.8518 7.84219C17.1669 7.84219 19.4913 10.1117 19.4913 13.3602C19.4913 17.0297 17.646 19.5727 15.2454 19.5727C13.9226 19.5727 12.9264 18.4734 13.2476 17.1227C13.6286 15.5094 14.3635 13.7703 14.3635 12.6055C14.3635 11.5664 13.8083 10.6969 12.6542 10.6969C11.2988 10.6969 10.2101 12.1023 10.2101 13.9891C10.2101 15.1922 10.6129 16.0016 10.6129 16.0016C10.6129 16.0016 9.27923 21.6781 9.03427 22.7391C8.7621 23.9094 8.87097 25.5609 8.98528 26.6328C3.96633 24.6586 0.40625 19.7477 0.40625 14C0.40625 6.50781 6.44859 0.4375 13.9062 0.4375C21.3639 0.4375 27.4062 6.50781 27.4062 14Z" fill="#C8232C"/>
</svg>
