<svg height="30px" width="30px" viewBox="0 0 30 30" fill="none" xmlns="http://www.w3.org/2000/svg">
                                            <circle cx="14.9996" cy="14.9996" r="14.9996" fill="white"></circle>
                                            <path d="M14.9996 0.000488281C6.71634 0.000488281 0 6.71682 0 15.0001C0 23.2833 6.71634 29.9997 14.9996 29.9997C23.2828 29.9997 29.9992 23.2833 29.9992 15.0001C29.9992 6.71682 23.2828 0.000488281 14.9996 0.000488281ZM22.2081 11.3071C22.2181 11.4645 22.2181 11.6285 22.2181 11.7892C22.2181 16.7043 18.4749 22.366 11.6347 22.366C9.52541 22.366 7.57011 21.7532 5.92283 20.6986C6.22416 20.7321 6.5121 20.7455 6.82013 20.7455C8.56115 20.7455 10.1616 20.1562 11.4372 19.1584C9.8033 19.125 8.43057 18.0536 7.96184 16.5804C8.53437 16.6641 9.04998 16.6641 9.63925 16.5134C8.79795 16.3425 8.04177 15.8856 7.49918 15.2203C6.95659 14.5551 6.66105 13.7225 6.66277 12.864V12.8171C7.15494 13.095 7.73417 13.2658 8.34018 13.2892C7.83073 12.9497 7.41294 12.4897 7.12384 11.95C6.83474 11.4104 6.68327 10.8077 6.68285 10.1955C6.68285 9.50246 6.86365 8.86967 7.18842 8.32057C8.12222 9.47011 9.28746 10.4103 10.6084 11.08C11.9294 11.7497 13.3764 12.1339 14.8556 12.2077C14.33 9.67991 16.2183 7.63421 18.4883 7.63421C19.5597 7.63421 20.524 8.08286 21.2037 8.80605C22.044 8.64869 22.8476 8.33397 23.5641 7.9121C23.2862 8.77257 22.7036 9.49911 21.9302 9.95781C22.6802 9.87745 23.4034 9.66987 24.073 9.37858C23.5674 10.1219 22.9346 10.7814 22.2081 11.3071Z" fill="#52AFEF"></path>
                                        </svg>